# xmcd
#
# Track frame offsets: 
#        150
#        16192
#        28584
#        40946
#        52202
#        64912
#        72705
#        83361
#        95037
#        111530
#        131437
#        147807
#        166080
#        179251
#        190858
#        201211
#        217535
#        233424
#        249140
#        262300
#        273804
#        296463
#        307265
#        322043
#        332070
#
# Disc length: 4706 seconds
#
# Revision: 0
# Processed by: cddbd v1.5.2PL0 Copyright (c) Steve Scherf et al.
# Submitted via: ExactAudioCopy v0.99pb5
#
DISCID=6e126019
DTITLE=John Lee Hooker - Boogie Chillun Cd 2
DYEAR=2011
DGENRE=Blues
TTITLE0=It Serves Me Right to Suffer (1965)
TTITLE1=Crawlin' Black Spider
TTITLE2=I'm in the Mood (1959)
TTITLE3=This Is Hip
TTITLE4=I Can't Quit You Now Blues [Live at Newport 1963]
TTITLE5=Stop Baby Don't Hold Me That Way [Live at Newport 1963]
TTITLE6=Maudie (1959)
TTITLE7=I Love You Honey (1958)
TTITLE8=Five Long Years
TTITLE9=Half A Stranger
TTITLE10=New Sally Mae
TTITLE11=House Rent Boogie
TTITLE12=Canal Street Blues
TTITLE13=Will the Circle Be Unbroken
TTITLE14=Big Legs, Tight Skirt (1965)
TTITLE15=Process
TTITLE16=Dirty Ground Hog
TTITLE17=One Way Ticket
TTITLE18=Unfriendly Woman (1958)
TTITLE19=Wheel And Deal
TTITLE20=Louise [Live at the Keystone, Palo Alto, California 09-1977]
TTITLE21=Goin' To California
TTITLE22=Moanin' Blues
TTITLE23=I Wanna Walk
TTITLE24=Crawlin' Kingsnake [Live in Chicago, Illinois, 10-1977]
EXTD=
EXTT0=
EXTT1=
EXTT2=
EXTT3=
EXTT4=
EXTT5=
EXTT6=
EXTT7=
EXTT8=
EXTT9=
EXTT10=
EXTT11=
EXTT12=
EXTT13=
EXTT14=
EXTT15=
EXTT16=
EXTT17=
EXTT18=
EXTT19=
EXTT20=
EXTT21=
EXTT22=
EXTT23=
EXTT24=
PLAYORDER=
